<svg width="18" height="18" viewBox="0 0 18 18" fill="none" xmlns="http://www.w3.org/2000/svg">
<path d="M9.059 1.69128C4.98384 1.69128 1.67645 4.99866 1.67645 9.07383C1.67645 13.149 4.98384 16.4564 9.059 16.4564C13.1342 16.4564 16.4416 13.149 16.4416 9.07383C16.4416 4.99866 13.1342 1.69128 9.059 1.69128ZM9.79726 4.12752L10.7939 3.42618C12.1375 3.83961 13.2818 4.72551 14.0275 5.89195L13.7395 6.88121L12.7429 7.22081L9.79726 5.16108V4.12752ZM7.3241 3.42618L8.32075 4.12752V5.16108L5.37511 7.22081L4.37847 6.88121L4.09055 5.89195C4.83618 4.73289 5.98048 3.84699 7.3241 3.42618ZM5.42679 12.8463L4.58518 12.9201C3.69189 11.8866 3.15296 10.543 3.15296 9.07383C3.15296 8.98524 3.16035 8.90403 3.16773 8.81544L3.90598 8.27652L4.92478 8.63088L6.00263 11.8349L5.42679 12.8463ZM10.9046 14.6772C10.3214 14.8691 9.70129 14.9799 9.059 14.9799C8.41672 14.9799 7.79659 14.8691 7.21337 14.6772L6.70397 13.5772L7.17645 12.7651H10.9489L11.4214 13.5846L10.9046 14.6772ZM10.7348 11.2886H7.38316L6.38652 8.32081L9.059 6.44564L11.7389 8.32081L10.7348 11.2886ZM13.5328 12.9201L12.6912 12.8463L12.108 11.8349L13.1858 8.63088L14.212 8.2839L14.9503 8.82282C14.9577 8.90403 14.965 8.98524 14.965 9.07383C14.965 10.543 14.4261 11.8866 13.5328 12.9201Z" fill="white"/>
</svg>
