<svg width="60" height="60" viewBox="0 0 60 60" fill="none" xmlns="http://www.w3.org/2000/svg">
<circle cx="30" cy="30" r="30" fill="none"/>
<path d="M32.2493 17.9995C31.6526 17.9995 31.0803 18.2366 30.6583 18.6585C30.2364 19.0805 29.9993 19.6528 29.9993 20.2495C29.9993 20.8462 30.2364 21.4185 30.6583 21.8405C31.0803 22.2625 31.6526 22.4995 32.2493 22.4995C32.8461 22.4995 33.4184 22.2625 33.8403 21.8405C34.2623 21.4185 34.4993 20.8462 34.4993 20.2495C34.4993 19.6528 34.2623 19.0805 33.8403 18.6585C33.4184 18.2366 32.8461 17.9995 32.2493 17.9995ZM31.7093 25.1545C29.9243 25.3045 25.0493 29.1895 25.0493 29.1895C24.7493 29.4145 24.8393 29.3995 25.0793 29.8195C25.3193 30.2245 25.2893 30.2545 25.5743 30.0595C25.8743 29.8645 26.3693 29.5495 27.1943 29.0395C30.3743 26.9995 27.7043 31.7095 26.3393 39.6445C25.7993 43.5745 29.3393 41.5495 30.2543 40.9495C31.1543 40.3645 33.5693 38.6995 33.8093 38.5345C34.1393 38.3095 33.8993 38.1295 33.6443 37.7545C33.4643 37.4995 33.2843 37.6795 33.2843 37.6795C32.3093 38.3245 30.5243 39.6745 30.2843 38.8195C29.9993 37.9645 31.8293 32.0995 32.8343 28.0645C32.9993 27.1045 33.4493 25.0045 31.7093 25.1545Z" fill="white"/>
</svg>
