<svg width="60" height="60" viewBox="0 0 60 60" fill="none" xmlns="http://www.w3.org/2000/svg">
<circle cx="30" cy="30" r="30" fill="#55AE3A"/>
<path d="M41.0002 21.0333C38.6002 21.0333 36.3336 21.9667 34.7169 23.5833L23.0002 33.9833C21.9336 35.05 20.5169 35.6333 19.0002 35.6333C15.8836 35.6333 13.3502 33.1167 13.3502 30C13.3502 26.8833 15.8836 24.3667 19.0002 24.3667C20.5169 24.3667 21.9336 24.95 23.0669 26.0833L24.9502 27.75L27.4669 25.5167L25.3669 23.6667C23.6669 21.9667 21.4002 21.0333 19.0002 21.0333C14.0336 21.0333 10.0002 25.0667 10.0002 30C10.0002 34.9333 14.0336 38.9667 19.0002 38.9667C21.4002 38.9667 23.6669 38.0333 25.2836 36.4167L37.0002 26.0167C38.0669 24.95 39.4836 24.3667 41.0002 24.3667C44.1169 24.3667 46.6502 26.8833 46.6502 30C46.6502 33.1167 44.1169 35.6333 41.0002 35.6333C39.5002 35.6333 38.0669 35.05 36.9336 33.9167L35.0336 32.2333L32.5169 34.4667L34.6336 36.3333C36.3336 38.0167 38.5836 38.95 41.0002 38.95C45.9669 38.95 50.0002 34.9333 50.0002 29.9833C50.0002 25.0333 45.9669 21.0333 41.0002 21.0333V21.0333Z" fill="white"/>
</svg>
