<svg width="60" height="60" viewBox="0 0 60 60" fill="none" xmlns="http://www.w3.org/2000/svg">
<circle cx="30" cy="30" r="30" fill="#363636"/>
<path d="M40.4995 40.4995V23.9995H19.4995V40.4995H40.4995ZM35.9995 13.4995H38.9995V16.4995H40.4995C41.2952 16.4995 42.0582 16.8156 42.6208 17.3782C43.1834 17.9408 43.4995 18.7039 43.4995 19.4995V40.4995C43.4995 41.2952 43.1834 42.0582 42.6208 42.6208C42.0582 43.1834 41.2952 43.4995 40.4995 43.4995H19.4995C17.8345 43.4995 16.4995 42.1495 16.4995 40.4995V19.4995C16.4995 17.8345 17.8345 16.4995 19.4995 16.4995H20.9995V13.4995H23.9995V16.4995H35.9995V13.4995ZM22.4995 26.9995H25.4995V29.9995H22.4995V26.9995ZM34.4995 26.9995H37.4995V29.9995H34.4995V26.9995ZM28.4995 32.9995H31.4995V35.9995H28.4995V32.9995ZM34.4995 32.9995H37.4995V35.9995H34.4995V32.9995Z" fill="white"/>
</svg>
