<svg width="60" height="60" viewBox="0 0 60 60" fill="none" xmlns="http://www.w3.org/2000/svg">
<circle cx="30" cy="30" r="30" fill="none"/>
<g clip-path="url(#clip0_97_62)">
<path d="M43.4995 34.4995L22.4995 34.4995L22.4995 37.4995L43.4995 37.4995L43.4995 34.4995ZM43.4995 28.4995L22.4995 28.4995L22.4995 31.4995L43.4995 31.4995L43.4995 28.4995ZM43.4995 22.4995L22.4995 22.4995L22.4995 25.4995L43.4995 25.4995L43.4995 22.4995ZM19.4995 22.4995L16.4995 22.4995L16.4995 25.4995L19.4995 25.4995L19.4995 22.4995ZM19.4995 37.4995L19.4995 34.4995L16.4995 34.4995L16.4995 37.4995L19.4995 37.4995ZM19.4995 28.4995L16.4995 28.4995L16.4995 31.4995L19.4995 31.4995L19.4995 28.4995Z" fill="white"/>
</g>
<defs>
<clipPath id="clip0_97_62">
<rect width="36" height="36" fill="white" transform="translate(11.9995 11.9995)"/>
</clipPath>
</defs>
</svg>
