<svg width="60" height="60" viewBox="0 0 60 60" fill="none" xmlns="http://www.w3.org/2000/svg">
<circle cx="30" cy="30" r="30" fill="#363636"/>
<path d="M29.9995 23.9995V29.9995L34.4995 34.4995M43.4995 29.9995C43.4995 31.7724 43.1503 33.5278 42.4719 35.1657C41.7934 36.8036 40.799 38.2919 39.5455 39.5455C38.2919 40.799 36.8036 41.7935 35.1657 42.4719C33.5278 43.1503 31.7724 43.4995 29.9995 43.4995C28.2267 43.4995 26.4712 43.1503 24.8333 42.4719C23.1954 41.7935 21.7072 40.799 20.4536 39.5455C19.2 38.2919 18.2056 36.8036 17.5271 35.1657C16.8487 33.5278 16.4995 31.7724 16.4995 29.9995C16.4995 26.4191 17.9218 22.9853 20.4536 20.4536C22.9853 17.9218 26.4191 16.4995 29.9995 16.4995C33.5799 16.4995 37.0137 17.9218 39.5455 20.4536C42.0772 22.9853 43.4995 26.4191 43.4995 29.9995Z" stroke="white" stroke-width="2" stroke-linecap="round" stroke-linejoin="round"/>
</svg>
