<svg width="60" height="60" viewBox="0 0 60 60" fill="none" xmlns="http://www.w3.org/2000/svg">
<circle cx="30" cy="30" r="30" fill="#363636"/>
<path d="M44.583 37.2917V36.5625C44.583 34.55 42.9497 32.9167 40.9372 32.9167C38.9247 32.9167 37.2913 34.55 37.2913 36.5625V37.2917C36.4893 37.2917 35.833 37.9479 35.833 38.75V44.5833C35.833 45.3854 36.4893 46.0417 37.2913 46.0417H44.583C45.3851 46.0417 46.0413 45.3854 46.0413 44.5833V38.75C46.0413 37.9479 45.3851 37.2917 44.583 37.2917ZM43.1247 37.2917H38.7497V36.5625C38.7497 35.3521 39.7268 34.375 40.9372 34.375C42.1476 34.375 43.1247 35.3521 43.1247 36.5625V37.2917ZM24.1663 24.1667C24.1663 20.9438 26.7768 18.3333 29.9997 18.3333C33.2226 18.3333 35.833 20.9438 35.833 24.1667C35.833 27.3896 33.2226 30 29.9997 30C26.7768 30 24.1663 27.3896 24.1663 24.1667ZM32.9163 41.6667H18.333V38.75C18.333 35.5271 23.5538 32.9167 29.9997 32.9167C31.8518 32.9167 33.5872 33.1354 35.1476 33.5146C34.8413 34.1125 34.5934 34.7396 34.4768 35.4104C33.5288 36.2125 32.9163 37.4083 32.9163 38.75V41.6667Z" fill="white"/>
</svg>
