<svg width="56" height="56" viewBox="0 0 56 56" fill="none" xmlns="http://www.w3.org/2000/svg">
<rect width="56" height="56" rx="28" fill="#006633"/>
<path d="M39.6667 22.6667C39.6667 23.7712 38.7713 24.6667 37.6667 24.6667H18.3334C17.2288 24.6667 16.3334 23.7712 16.3334 22.6667V20.8333C16.3334 19.7288 17.2288 18.8333 18.3334 18.8333H37.6667C38.7713 18.8333 39.6667 19.7288 39.6667 20.8333V22.6667ZM39.6667 35.1667C39.6667 36.2712 38.7713 37.1667 37.6667 37.1667H18.3334C17.2288 37.1667 16.3334 36.2712 16.3334 35.1667V33.3333C16.3334 32.2288 17.2288 31.3333 18.3334 31.3333H37.6667C38.7713 31.3333 39.6667 32.2288 39.6667 33.3333V35.1667Z" fill="white"/>
</svg>
