<svg width="56" height="56" viewBox="0 0 56 56" fill="none" xmlns="http://www.w3.org/2000/svg">
<rect x="56" width="56" height="56" rx="28" transform="rotate(90 56 0)" fill="#DF7E24"/>
<path d="M44.5 33.5L18.8333 33.5L18.8333 37.1667L44.5 37.1667L44.5 33.5ZM44.5 26.1667L18.8333 26.1667L18.8333 29.8333L44.5 29.8333L44.5 26.1667ZM44.5 18.8333L18.8333 18.8333L18.8333 22.5L44.5 22.5L44.5 18.8333ZM15.1667 18.8333L11.5 18.8333L11.5 22.5L15.1667 22.5L15.1667 18.8333ZM15.1667 37.1667L15.1667 33.5L11.5 33.5L11.5 37.1667L15.1667 37.1667ZM15.1667 26.1667L11.5 26.1667L11.5 29.8333L15.1667 29.8333L15.1667 26.1667Z" fill="white"/>
</svg>
